<mxfile host="app.diagrams.net" modified="2023-11-29T13:26:24.439Z" agent="Mozilla/5.0 (Macintosh; Intel Mac OS X 10_15_7) AppleWebKit/537.36 (KHTML, like Gecko) Chrome/119.0.0.0 Safari/537.36 Edg/119.0.0.0" etag="eWiNkEZ1IS_jRJayTO4Z" version="22.1.4" type="device">
  <diagram name="第 1 页" id="22phxjvGAfJIUhco7L6M">
    <mxGraphModel dx="2026" dy="1160" grid="1" gridSize="10" guides="1" tooltips="1" connect="1" arrows="1" fold="1" page="1" pageScale="1" pageWidth="827" pageHeight="1169" math="0" shadow="0">
      <root>
        <mxCell id="0" />
        <mxCell id="1" parent="0" />
        <mxCell id="C3iHcFGMPZXifNCbv0KG-1" value="" style="whiteSpace=wrap;html=1;aspect=fixed;" vertex="1" parent="1">
          <mxGeometry x="40" y="400" width="420" height="420" as="geometry" />
        </mxCell>
        <mxCell id="C3iHcFGMPZXifNCbv0KG-2" value="源集群" style="text;html=1;align=center;verticalAlign=middle;resizable=0;points=[];autosize=1;strokeColor=none;fillColor=none;" vertex="1" parent="1">
          <mxGeometry x="50" y="410" width="60" height="30" as="geometry" />
        </mxCell>
        <mxCell id="C3iHcFGMPZXifNCbv0KG-16" style="edgeStyle=orthogonalEdgeStyle;rounded=0;orthogonalLoop=1;jettySize=auto;html=1;exitX=0.5;exitY=1;exitDx=0;exitDy=0;entryX=0.75;entryY=0;entryDx=0;entryDy=0;" edge="1" parent="1" source="C3iHcFGMPZXifNCbv0KG-3" target="C3iHcFGMPZXifNCbv0KG-12">
          <mxGeometry relative="1" as="geometry" />
        </mxCell>
        <mxCell id="C3iHcFGMPZXifNCbv0KG-27" value="" style="edgeStyle=orthogonalEdgeStyle;rounded=0;orthogonalLoop=1;jettySize=auto;html=1;" edge="1" parent="1" source="C3iHcFGMPZXifNCbv0KG-3" target="C3iHcFGMPZXifNCbv0KG-26">
          <mxGeometry relative="1" as="geometry" />
        </mxCell>
        <mxCell id="C3iHcFGMPZXifNCbv0KG-3" value="APIServer" style="rounded=1;whiteSpace=wrap;html=1;" vertex="1" parent="1">
          <mxGeometry x="140" y="450" width="120" height="60" as="geometry" />
        </mxCell>
        <mxCell id="C3iHcFGMPZXifNCbv0KG-6" style="edgeStyle=orthogonalEdgeStyle;rounded=0;orthogonalLoop=1;jettySize=auto;html=1;entryX=0.5;entryY=0;entryDx=0;entryDy=0;" edge="1" parent="1" source="C3iHcFGMPZXifNCbv0KG-5" target="C3iHcFGMPZXifNCbv0KG-3">
          <mxGeometry relative="1" as="geometry" />
        </mxCell>
        <mxCell id="C3iHcFGMPZXifNCbv0KG-5" value="Kubectl/API&lt;br&gt;" style="shape=umlActor;verticalLabelPosition=bottom;verticalAlign=top;html=1;outlineConnect=0;" vertex="1" parent="1">
          <mxGeometry x="185" y="280" width="30" height="60" as="geometry" />
        </mxCell>
        <mxCell id="C3iHcFGMPZXifNCbv0KG-8" value="" style="whiteSpace=wrap;html=1;aspect=fixed;" vertex="1" parent="1">
          <mxGeometry x="480" y="400" width="420" height="420" as="geometry" />
        </mxCell>
        <mxCell id="C3iHcFGMPZXifNCbv0KG-9" value="APIServer" style="rounded=1;whiteSpace=wrap;html=1;" vertex="1" parent="1">
          <mxGeometry x="630" y="455" width="120" height="60" as="geometry" />
        </mxCell>
        <mxCell id="C3iHcFGMPZXifNCbv0KG-10" value="目标集群" style="text;html=1;align=center;verticalAlign=middle;resizable=0;points=[];autosize=1;strokeColor=none;fillColor=none;" vertex="1" parent="1">
          <mxGeometry x="480" y="410" width="70" height="30" as="geometry" />
        </mxCell>
        <mxCell id="C3iHcFGMPZXifNCbv0KG-11" value="" style="rounded=0;whiteSpace=wrap;html=1;" vertex="1" parent="1">
          <mxGeometry x="80" y="570" width="120" height="60" as="geometry" />
        </mxCell>
        <mxCell id="C3iHcFGMPZXifNCbv0KG-13" value="" style="rounded=0;whiteSpace=wrap;html=1;" vertex="1" parent="1">
          <mxGeometry x="130" y="585" width="120" height="60" as="geometry" />
        </mxCell>
        <mxCell id="C3iHcFGMPZXifNCbv0KG-14" style="edgeStyle=orthogonalEdgeStyle;rounded=0;orthogonalLoop=1;jettySize=auto;html=1;exitX=0.5;exitY=1;exitDx=0;exitDy=0;entryX=0.5;entryY=0;entryDx=0;entryDy=0;" edge="1" parent="1" source="C3iHcFGMPZXifNCbv0KG-3" target="C3iHcFGMPZXifNCbv0KG-11">
          <mxGeometry relative="1" as="geometry" />
        </mxCell>
        <mxCell id="C3iHcFGMPZXifNCbv0KG-19" value="" style="edgeStyle=orthogonalEdgeStyle;rounded=0;orthogonalLoop=1;jettySize=auto;html=1;" edge="1" parent="1" source="C3iHcFGMPZXifNCbv0KG-12" target="C3iHcFGMPZXifNCbv0KG-17">
          <mxGeometry relative="1" as="geometry" />
        </mxCell>
        <mxCell id="C3iHcFGMPZXifNCbv0KG-24" value="cms, secrets, pods, ..." style="edgeLabel;html=1;align=center;verticalAlign=middle;resizable=0;points=[];" vertex="1" connectable="0" parent="C3iHcFGMPZXifNCbv0KG-19">
          <mxGeometry x="-0.25" relative="1" as="geometry">
            <mxPoint as="offset" />
          </mxGeometry>
        </mxCell>
        <mxCell id="C3iHcFGMPZXifNCbv0KG-12" value="Webhook" style="rounded=0;whiteSpace=wrap;html=1;" vertex="1" parent="1">
          <mxGeometry x="180" y="600" width="120" height="60" as="geometry" />
        </mxCell>
        <mxCell id="C3iHcFGMPZXifNCbv0KG-17" value="mq" style="shape=cylinder3;whiteSpace=wrap;html=1;boundedLbl=1;backgroundOutline=1;size=15;direction=east;" vertex="1" parent="1">
          <mxGeometry x="210" y="700" width="60" height="80" as="geometry" />
        </mxCell>
        <mxCell id="C3iHcFGMPZXifNCbv0KG-26" value="ETCD" style="rounded=0;whiteSpace=wrap;html=1;" vertex="1" parent="1">
          <mxGeometry x="300" y="455" width="50" height="50" as="geometry" />
        </mxCell>
        <mxCell id="C3iHcFGMPZXifNCbv0KG-32" style="edgeStyle=orthogonalEdgeStyle;rounded=0;orthogonalLoop=1;jettySize=auto;html=1;entryX=0.5;entryY=1;entryDx=0;entryDy=0;" edge="1" parent="1" source="C3iHcFGMPZXifNCbv0KG-30" target="C3iHcFGMPZXifNCbv0KG-9">
          <mxGeometry relative="1" as="geometry" />
        </mxCell>
        <mxCell id="C3iHcFGMPZXifNCbv0KG-30" value="ys1000" style="rounded=0;whiteSpace=wrap;html=1;" vertex="1" parent="1">
          <mxGeometry x="630" y="620" width="120" height="60" as="geometry" />
        </mxCell>
        <mxCell id="C3iHcFGMPZXifNCbv0KG-33" style="edgeStyle=orthogonalEdgeStyle;rounded=0;orthogonalLoop=1;jettySize=auto;html=1;exitX=0.5;exitY=1;exitDx=0;exitDy=0;entryX=0.5;entryY=0;entryDx=0;entryDy=0;" edge="1" parent="1" source="C3iHcFGMPZXifNCbv0KG-3" target="C3iHcFGMPZXifNCbv0KG-13">
          <mxGeometry relative="1" as="geometry" />
        </mxCell>
        <mxCell id="C3iHcFGMPZXifNCbv0KG-34" style="edgeStyle=orthogonalEdgeStyle;rounded=0;orthogonalLoop=1;jettySize=auto;html=1;exitX=0.5;exitY=1;exitDx=0;exitDy=0;entryX=1;entryY=0;entryDx=0;entryDy=52.5;entryPerimeter=0;" edge="1" parent="1" source="C3iHcFGMPZXifNCbv0KG-30" target="C3iHcFGMPZXifNCbv0KG-17">
          <mxGeometry relative="1" as="geometry" />
        </mxCell>
      </root>
    </mxGraphModel>
  </diagram>
</mxfile>
